<svg width="16" height="16" viewBox="0 0 16 16" fill="none" xmlns="http://www.w3.org/2000/svg">
<path d="M11.1229 0.634707C12.8269 1.3572 14.2277 2.64819 15.0865 4.28769C15.9454 5.9272 16.2092 7.81378 15.833 9.62599C15.4568 11.4382 14.4639 13.0639 13.0235 14.2261C11.583 15.3883 9.78418 16.0151 7.9334 15.9997C6.08262 15.9843 4.29444 15.3277 2.87355 14.1416C1.45265 12.9556 0.486953 11.3136 0.140997 9.49535C-0.20496 7.67713 0.0902299 5.7952 0.97627 4.17022C1.86231 2.54524 3.28438 1.27776 5.00017 0.583733L5.91264 2.83956C4.71874 3.32248 3.72923 4.20443 3.1127 5.33514C2.49617 6.46584 2.29077 7.77534 2.53149 9.0405C2.77222 10.3057 3.44418 11.4482 4.43288 12.2735C5.42157 13.0988 6.66584 13.5557 7.95366 13.5664C9.24148 13.5771 10.4932 13.141 11.4955 12.3323C12.4978 11.5236 13.1887 10.3924 13.4504 9.13141C13.7122 7.87042 13.5286 6.55769 12.931 5.41688C12.3334 4.27607 11.3587 3.37776 10.173 2.87503L11.1229 0.634707Z" fill="white"/>
<line x1="8" y1="1" x2="8" y2="8" stroke="white" stroke-width="2" stroke-linecap="round"/>
<line x1="8" y1="8" x2="11" y2="8" stroke="white" stroke-width="2" stroke-linecap="round"/>
</svg>
