<svg width="16" height="25" viewBox="0 0 16 25" fill="none" xmlns="http://www.w3.org/2000/svg">
<path d="M15.2381 7.61905C15.2381 11.8269 11.8269 15.2381 7.61905 15.2381C3.41116 15.2381 0 11.8269 0 7.61905C0 3.41116 3.41116 0 7.61905 0C11.8269 0 15.2381 3.41116 15.2381 7.61905ZM1.89776 7.61905C1.89776 10.7788 4.45927 13.3403 7.61905 13.3403C10.7788 13.3403 13.3403 10.7788 13.3403 7.61905C13.3403 4.45927 10.7788 1.89776 7.61905 1.89776C4.45927 1.89776 1.89776 4.45927 1.89776 7.61905Z" fill="#F2F2F2"/>
<path d="M3.04762 13.1048V23.0095L7.61905 20.6084L12.1905 23.0095V13.1048" stroke="#F2F2F2" stroke-width="1.9" stroke-linecap="round"/>
</svg>
